<svg xmlns:inkscape="http://www.inkscape.org/namespaces/inkscape" xmlns:sodipodi="http://sodipodi.sourceforge.net/DTD/sodipodi-0.dtd" xmlns="http://www.w3.org/2000/svg" xmlns:svg="http://www.w3.org/2000/svg" version="1.1" id="svg5" xml:space="preserve" sodipodi:docname="birbal.svg" inkscape:version="1.2.1 (9c6d41e, 2022-07-14)" inkscape:export-filename="birbal/birbal2.svg" inkscape:export-xdpi="96" inkscape:export-ydpi="96" viewBox="26.09 44.72 64.17 25.01"><sodipodi:namedview id="namedview7" pagecolor="#ffffff" bordercolor="#eeeeee" borderopacity="1" inkscape:showpageshadow="0" inkscape:pageopacity="0" inkscape:pagecheckerboard="0" inkscape:deskcolor="#505050" inkscape:document-units="mm" showgrid="true" inkscape:zoom="0.80657509" inkscape:cx="450.671" inkscape:cy="310.57245" inkscape:window-width="1440" inkscape:window-height="847" inkscape:window-x="0" inkscape:window-y="25" inkscape:window-maximized="1" inkscape:current-layer="layer1"><inkscape:grid type="xygrid" id="grid132" spacingx="119.0625" spacingy="119.0625"/></sodipodi:namedview><defs id="defs2"/><g inkscape:label="Layer 1" inkscape:groupmode="layer" id="layer1"><path id="path13137" style="font-size:27.2727px;line-height:1.25;font-family:Trochut;-inkscape-font-specification:Trochut;fill:#ffffff;stroke-width:0.681819" d="m 35.186095,53.233439 c -1.4095,0.234016 -2.414991,0.69574 -2.945557,0.989604 l -0.01117,15.239945 h 4.93665 c 4.472718,0 6.708634,-1.67285 6.708634,-5.018298 0,-1.345451 -0.354411,-2.399996 -1.063501,-3.163631 -0.690907,-0.781817 -1.690728,-1.37302 -2.999817,-1.773019 1.145453,-0.363635 1.990826,-0.85408 2.53628,-1.472261 0.563634,-0.618181 0.568743,-0.815928 0.802859,-1.955177 0.01677,-0.08159 -0.0019,-0.165012 -0.0047,-0.24598 -0.783913,-0.760786 -1.958908,-1.609724 -2.870433,-1.85596 0.0723,0.353803 0.10852,0.75151 0.10852,1.193209 0,2.65454 -1.372646,3.981669 -4.118095,3.981669 h -1.090889 z m -0.01117,6.711267 h 1.74563 c 1.181816,0 2.154533,0.363618 2.918168,1.09089 0.781816,0.709089 1.172538,1.799944 1.172538,3.272668 0,1.454543 -0.390722,2.5275 -1.172538,3.218408 -0.763635,0.672726 -2.000247,1.008724 -3.709335,1.008724 h -0.954463 z" sodipodi:nodetypes="cccsscccsccsscccscscscc"/><path d="m 48.6203,51.190123 q 0.354545,0.518181 0.354545,1.281816 0,0.763636 -0.354545,1.336363 -0.354546,0.545454 -0.845454,0.545454 -0.463636,0 -0.818181,-0.545454 -0.354545,-0.572727 -0.354545,-1.336363 0,-0.763635 0.354545,-1.281816 0.354545,-0.545454 0.818181,-0.545454 0.490908,0 0.845454,0.545454 z m 0.954544,17.1818 q 0.545454,0 0.872726,-0.872726 l 0.518182,0.08182 q 0,0.245454 -0.163636,0.681817 -0.163637,0.436364 -0.381818,0.736363 -0.190909,0.272727 -0.627272,0.490909 -0.409091,0.245454 -0.954545,0.245454 -2.236361,0 -2.236361,-2.699997 V 56.644662 h 2.345452 v 10.799989 q 0,0.927272 0.627272,0.927272 z" style="font-size:27.2727px;line-height:1.25;font-family:Trochut;-inkscape-font-specification:Trochut;fill:#ffffff;stroke-width:0.681819" id="path13139"/><path d="m 59.583883,62.371929 h -2.154544 v -2.509088 q 0,-2.509088 -2.345452,-2.509088 V 69.462831 H 52.738435 V 56.644662 h 2.345452 q 2.754543,0 3.872724,2.01818 v -1.745453 h 0.627272 z" style="font-size:27.2727px;line-height:1.25;font-family:Trochut;-inkscape-font-specification:Trochut;fill:#ffffff;stroke-width:0.681819" id="path13141"/><path d="m 70.792929,65.399199 q 0,1.990907 -0.981817,3.163633 -0.954544,1.172726 -2.72727,1.172726 -1.745452,0 -2.563633,-1.909089 v 1.636362 H 62.174756 V 50.644669 h 2.345453 v 7.58181 q 0.790908,-1.854544 2.563633,-1.854544 1.772726,0 2.72727,1.172727 0.981817,1.172726 0.981817,3.13636 z m -2.399997,0.927272 V 59.75375 q 0,-2.563634 -1.609089,-2.563634 -1.063636,0 -1.663635,0.981818 -0.599999,0.954544 -0.599999,2.181816 v 5.372721 q 0,1.336363 0.599999,2.236362 0.599999,0.899999 1.71818,0.899999 1.554544,0 1.554544,-2.536361 z" style="font-size:27.2727px;line-height:1.25;font-family:Trochut;-inkscape-font-specification:Trochut;fill:#ffffff;stroke-width:0.681819" id="path13143"/><path d="m 82.138338,67.444651 q 0,0.927272 0.599999,0.927272 0.6,0 0.872727,-0.872726 l 0.518181,0.08182 q 0,0.218181 -0.163636,0.681817 -0.136364,0.436364 -0.354545,0.736363 -0.190909,0.272727 -0.627272,0.490909 -0.436364,0.245454 -0.981818,0.245454 -1.909089,0 -2.181816,-2.01818 -0.790908,2.01818 -2.72727,2.01818 -1.636361,0 -2.618179,-1.172726 -0.954544,-1.172726 -0.954544,-3.163633 v -4.718177 q 0,-1.963634 0.954544,-3.13636 0.981818,-1.172727 2.754543,-1.172727 1.772725,0 2.536361,1.854544 v -1.581817 h 2.372725 z m -2.372725,-1.71818 V 60.35375 q 0,-1.254545 -0.599999,-2.209089 -0.6,-0.954545 -1.663635,-0.954545 -1.609089,0 -1.609089,2.563634 v 6.572721 q 0,2.536361 1.581816,2.536361 1.118181,0 1.690908,-0.899999 0.599999,-0.927272 0.599999,-2.236362 z" style="font-size:27.2727px;line-height:1.25;font-family:Trochut;-inkscape-font-specification:Trochut;fill:#ffffff;stroke-width:0.681819" id="path13145"/><path d="m 88.111012,69.735558 q -2.209088,0 -2.209088,-2.699997 V 50.644669 h 2.345452 v 16.799982 q 0,0.927272 0.599999,0.927272 0.3,0 0.518181,-0.218181 0.218182,-0.218182 0.381818,-0.654545 l 0.518181,0.08182 q 0,0.218181 -0.163636,0.681817 -0.136363,0.436364 -0.354545,0.709091 -0.572727,0.763635 -1.636362,0.763635 z" style="font-size:27.2727px;line-height:1.25;font-family:Trochut;-inkscape-font-specification:Trochut;fill:#ffffff;stroke-width:0.681819" id="path13147"/><g id="g12545" transform="matrix(-0.09361536,0,0,0.09361536,77.744591,-78.195112)" style="fill:#ffffff;fill-opacity:1"><path d="m 356.93817,1389.5646 c -1.32613,0 -2.59819,-0.5986 -3.73307,-1.4176 -9.69663,-7.0026 -6.08787,-22.7562 -5.64728,-24.5271 7.19412,-29.6528 31.56261,-45.3479 70.46195,-45.3479 41.12197,0 84.66928,17.0589 86.50506,17.7863 11.7293,4.3982 19.23683,10.9497 22.21345,19.4427 3.91601,11.1743 -1.90809,21.137 -2.15339,21.5526 -1.2908,2.1658 -3.79959,3.2862 -6.27304,2.7956 -10.7566,-2.1222 -52.4293,-5.2711 -87.9524,-5.2711 -10.84599,0 -20.05415,0.3013 -27.37225,0.8937 -31.69351,2.565 -40.14927,9.9627 -41.28,11.1078 -0.73373,1.534 -1.95178,2.3716 -3.62707,2.831 -0.38038,0.106 -0.76491,0.1538 -1.14111,0.1538 z m 61.08086,-59.3781 c -33.2361,0 -53.04867,12.2055 -58.88857,36.2792 -0.53834,2.2074 -0.82935,5.2359 -0.59032,7.7406 6.74076,-3.9721 19.55077,-8.6798 43.48559,-10.6172 7.63684,-0.6194 17.16905,-0.9291 28.33484,-0.9291 30.93951,0 68.70067,2.407 85.32909,4.6996 0.54249,-2.1721 0.82312,-5.08 -0.23903,-8.021 -1.78757,-4.9553 -6.90678,-9.0459 -15.21301,-12.1635 -0.53211,-0.2078 -43.41483,-16.9881 -82.22158,-16.9881 z" id="path12459" style="fill:#ffffff;fill-opacity:1;stroke-width:0.53211"/><path d="m 364.88788,1418.3251 c -0.27021,0 -0.54248,-0.019 -0.81269,-0.056 -1.92267,-0.2661 -3.59381,-1.4488 -4.48137,-3.1698 -4.24028,-8.2248 -13.31125,-28.2997 -5.98623,-37.0896 2.1097,-2.5296 5.86757,-2.8663 8.39296,-0.7629 2.5296,2.1097 2.87047,5.8639 0.76283,8.393 -0.86052,1.9123 0.97483,9.131 4.09682,16.7551 12.06612,-10.3347 41.14272,-31.1657 86.10598,-38.3699 3.23629,-0.5384 6.30816,1.6919 6.8259,4.9407 0.52172,3.2509 -1.68987,6.3045 -4.94074,6.8259 -55.44582,8.8857 -85.31314,40.326 -85.6058,40.6442 -1.13281,1.2097 -2.71668,1.8894 -4.35872,1.8894 z" id="path12461" style="fill:#ffffff;fill-opacity:1;stroke-width:0.53211"/><path d="m 524.68572,1398.5839 c -0.22032,0 -0.44481,-0.012 -0.67136,-0.039 -27.42014,-3.0805 -101.70211,-10.5071 -115.96265,-7.8816 -3.23214,0.5903 -6.34381,-1.5486 -6.9403,-4.7849 -0.5924,-3.2363 1.54854,-6.3438 4.78483,-6.9403 16.54329,-3.0388 90.13937,4.5687 113.35531,7.0899 -0.59862,-4.6456 -3.57514,-7.4166 -3.73929,-7.5682 -2.41323,-2.1971 -2.64395,-5.9511 -0.48015,-8.3893 2.16377,-2.4402 5.85321,-2.7167 8.32273,-0.5841 0.44897,0.3867 10.94975,9.6674 7.08983,24.6245 -0.67759,2.6584 -3.07208,4.473 -5.75956,4.473 z" id="path12463" style="fill:#ffffff;fill-opacity:1;stroke-width:0.53211"/><path d="m 519.8382,1419.815 c -1.31367,0 -2.63351,-0.4344 -3.72684,-1.3074 -0.19954,-0.16 -20.49473,-16.2378 -51.00749,-26.1712 -3.12822,-1.0186 -4.84305,-4.3837 -3.82247,-7.5118 1.01851,-3.1283 4.38368,-4.8389 7.51179,-3.8225 24.06147,7.8343 41.89512,19.0314 49.9933,24.683 0.95615,-1.5527 1.73766,-3.3319 1.72313,-4.9408 -0.008,-0.8293 -0.21202,-1.9642 -1.73143,-3.3651 -2.41945,-2.2345 -2.56908,-6.0049 -0.33673,-8.4201 2.23444,-2.4195 6.00486,-2.5691 8.42011,-0.3368 3.61669,3.3403 5.54138,7.5182 5.56639,12.0869 0.0457,9.181 -7.62832,16.6699 -8.50311,17.491 -1.14526,1.0684 -2.61276,1.615 -4.08644,1.615 z" id="path12465" style="fill:#ffffff;fill-opacity:1;stroke-width:0.53211"/><path d="m 487.79988,1342.7123 c -1.3656,0 -2.73328,-0.4655 -3.85364,-1.4155 -32.42942,-27.5095 -73.25021,-11.8272 -73.65993,-11.667 -3.07001,1.2035 -6.5226,-0.291 -7.73635,-3.3486 -1.20969,-3.0596 0.28892,-6.5226 3.34857,-7.7363 1.93927,-0.7691 47.93988,-18.4222 85.76011,13.6624 2.50879,2.1285 2.81853,5.8905 0.68801,8.3994 -1.17644,1.3905 -2.85386,2.1055 -4.54373,2.1055 z" id="path12467" style="fill:#ffffff;fill-opacity:1;stroke-width:0.53211"/><path d="m 507.05161,1489.8407 c -1.561,0 -3.07208,-0.6132 -4.19659,-1.7253 -1.21177,-1.2013 -29.31605,-29.9976 2.59611,-81.8544 1.72313,-2.8018 5.39399,-3.677 8.19768,-1.9518 1.68987,1.0393 2.67928,2.7895 2.81853,4.6269 1.40924,-0.9644 3.21762,-1.3199 4.9906,-0.8169 3.16356,0.8979 5.00513,4.1904 4.10933,7.358 -1.74596,6.2209 -5.16727,25.5306 1.78549,32.4837 11.25146,11.2493 22.78919,27.302 23.27554,27.9773 1.54019,2.1492 1.4799,5.0529 -0.14342,7.1356 -1.62336,2.0868 -4.43146,2.8497 -6.88816,1.8769 -0.22864,-0.089 -24.08647,-9.023 -31.59188,2.2323 -0.9894,1.4799 -2.58573,2.4444 -4.35665,2.6232 -0.19538,0.025 -0.397,0.033 -0.59654,0.033 z m 5.89897,-72.8139 c -16.61619,29.7896 -10.17873,49.1579 -5.25251,57.6807 6.7679,-4.92 15.56633,-5.5936 23.21541,-4.8431 -3.64165,-4.4668 -7.87363,-9.3678 -11.98311,-13.4773 -10.40115,-10.4011 -7.90449,-30.0785 -5.97985,-39.3596 z" id="path12469" style="fill:#ffffff;fill-opacity:1;stroke-width:0.53211"/></g></g></svg>